<svg width="123" height="51" viewBox="0 0 123 51" fill="none" xmlns="http://www.w3.org/2000/svg">
<path d="M8.48583 27.7611C8.46284 29.1409 8.45134 31.2565 8.45134 34.108C8.45134 37.5344 8.47434 40.018 8.52033 41.5587H0.379761L0.414255 37.6609C0.460247 33.3836 0.483242 30.0837 0.483242 27.7611C0.483242 25.5535 0.460247 22.4261 0.414255 18.3788L0.379761 14.6534H8.52033C8.47434 17.9189 8.45134 20.5864 8.45134 22.656C8.45134 24.9556 8.46284 26.6573 8.48583 27.7611Z" fill="#6725D3"/>
<path d="M31.3348 35.8327C31.3348 36.6146 31.4268 37.1665 31.6108 37.4884C31.7947 37.8104 32.1627 38.0403 32.7146 38.1783L32.5766 41.4207C31.8407 41.5357 31.1969 41.6162 30.645 41.6622C30.116 41.7082 29.4032 41.7312 28.5063 41.7312C26.5287 41.7312 25.2179 41.2942 24.574 40.4204C23.9301 39.5236 23.6082 38.3853 23.6082 37.0055V36.1432C22.9413 38.0288 21.964 39.4316 20.6762 40.3514C19.4114 41.2713 17.7902 41.7312 15.8126 41.7312C13.513 41.7312 11.7768 41.2713 10.604 40.3514C9.45418 39.4316 8.87928 38.0633 8.87928 36.2466C8.87928 34.7519 9.37369 33.5791 10.3625 32.7283C11.3513 31.8774 12.8806 31.291 14.9502 30.9691C13.2025 29.7273 11.4548 28.6465 9.70714 27.7266C11.0869 25.9789 12.6621 24.6567 14.4328 23.7598C16.2035 22.84 18.3536 22.3801 20.8832 22.3801C24.4245 22.3801 27.0461 23.1504 28.7478 24.6912C30.4725 26.2089 31.3348 28.5545 31.3348 31.7279V35.8327ZM21.6075 28.451C20.4347 28.451 19.3999 28.6465 18.5031 29.0374C17.6062 29.4283 16.8014 30.0147 16.0885 30.7966C17.4683 30.6356 19.193 30.5551 21.2626 30.5551C22.1135 30.5551 22.7113 30.4517 23.0563 30.2447C23.4012 30.0377 23.5737 29.7733 23.5737 29.4513C23.5737 29.1754 23.4012 28.9454 23.0563 28.7615C22.7113 28.5545 22.2284 28.451 21.6075 28.451ZM17.9857 36.1087C19.2735 36.1087 20.4347 35.8672 21.4696 35.3843C22.5044 34.8784 23.2173 34.223 23.6082 33.4181V32.5213C23.0563 32.7972 22.4469 33.0157 21.78 33.1767C21.1131 33.3146 20.3083 33.4526 19.3654 33.5906L18.1237 33.7976C16.8359 34.0505 16.192 34.4874 16.192 35.1083C16.192 35.7752 16.7899 36.1087 17.9857 36.1087Z" fill="#6725D3"/>
<path d="M46.1745 41.5587C46.3125 38.1783 46.3815 35.0623 46.3815 32.2108C46.3815 31.199 46.1285 30.3942 45.6226 29.7963C45.1397 29.1984 44.5188 28.8994 43.7599 28.8994C43.0011 28.8994 42.3572 29.2444 41.8283 29.9342C41.2994 30.6011 40.9889 31.521 40.8969 32.6938C40.8509 34.4415 40.8279 35.6832 40.8279 36.4191C40.8279 37.9828 40.8739 39.696 40.9659 41.5587H32.7219C32.9058 38.2473 32.9978 35.1198 32.9978 32.1764C32.9978 29.2329 32.9058 26.0824 32.7219 22.725C34.2396 22.794 35.4009 22.8285 36.2057 22.8285C37.0566 22.8285 38.2179 22.794 39.6896 22.725L40.69 27.7956C41.2189 25.9559 42.0467 24.5992 43.1735 23.7253C44.3003 22.8285 45.6111 22.3801 47.1058 22.3801C48.4856 22.3801 49.6814 22.6905 50.6932 23.3114C51.705 23.9093 52.4639 24.7257 52.9698 25.7605C53.4987 26.7953 53.7632 27.9566 53.7632 29.2444V34.2115C53.7632 37.27 53.8207 39.719 53.9356 41.5587H46.1745Z" fill="#6725D3"/>
<path d="M70.9174 22.725H77.5403C77.4253 26.4963 77.3678 31.8544 77.3678 38.7992C77.3678 41.5357 76.8159 43.7778 75.7121 45.5255C74.6313 47.2732 73.194 48.538 71.4003 49.3198C69.6067 50.1247 67.606 50.5271 65.3984 50.5271C63.2138 50.5271 61.2591 50.2052 59.5344 49.5613C57.8097 48.9404 56.499 48.101 55.6021 47.0432L57.1543 41.7657C58.3961 42.4785 59.5689 42.9845 60.6727 43.2834C61.7765 43.6053 62.9263 43.7663 64.1221 43.7663C68.0314 43.7663 69.9861 42.1106 69.9861 38.7992C69.9861 38.3163 69.9976 37.9713 70.0206 37.7644C70.0206 37.6264 70.0206 37.4424 70.0206 37.2125C70.0436 36.9825 70.0436 36.6836 70.0206 36.3156C68.8478 39.581 66.3642 41.2138 62.5699 41.2138C61.0292 41.2138 59.6494 40.7998 58.4306 39.972C57.2348 39.1441 56.3035 38.0288 55.6366 36.6261C54.9697 35.2003 54.6363 33.6366 54.6363 31.9349C54.6363 30.1872 54.9697 28.589 55.6366 27.1402C56.3035 25.6685 57.2348 24.5072 58.4306 23.6563C59.6264 22.8055 60.9717 22.3801 62.4664 22.3801C66.3527 22.3801 68.8823 23.7483 70.0551 26.4849L70.9174 22.725ZM66.1573 35.6947C66.6862 35.6947 67.2381 35.5798 67.813 35.3498C68.3879 35.0968 68.8823 34.7059 69.2962 34.177C69.7101 33.6251 69.9171 32.9467 69.9171 32.1419C69.9171 30.7161 69.5952 29.7043 68.9513 29.1064C68.3074 28.4855 67.353 28.1751 66.0883 28.1751C64.9845 28.1751 64.1106 28.543 63.4667 29.2789C62.8228 30.0147 62.5009 30.9691 62.5009 32.1419C62.5009 33.1997 62.8458 34.062 63.5357 34.7289C64.2486 35.3728 65.1224 35.6947 66.1573 35.6947Z" fill="#6725D3"/>
<path d="M99.4488 22.725C99.2878 25.6225 99.2073 28.75 99.2073 32.1074C99.2073 35.4878 99.2878 38.6382 99.4488 41.5587C97.977 41.4897 96.8157 41.4552 95.9649 41.4552C95.16 41.4552 93.9987 41.4897 92.481 41.5587L91.4807 36.4881C90.9517 38.3278 90.1239 39.696 88.9971 40.5929C87.8703 41.4667 86.5595 41.9036 85.0648 41.9036C83.685 41.9036 82.4892 41.6047 81.4774 41.0068C80.4656 40.3859 79.6952 39.5581 79.1663 38.5232C78.6604 37.4884 78.4075 36.3271 78.4075 35.0393V30.0722C78.4075 27.0138 78.35 24.5647 78.235 22.725H85.9961C85.8581 26.1054 85.7892 29.4513 85.7892 32.7627C85.7892 33.7746 86.0306 34.5794 86.5135 35.1773C87.0194 35.7752 87.6518 36.0742 88.4107 36.0742C89.1236 36.0742 89.7445 35.7637 90.2734 35.1428C90.8253 34.4989 91.1587 33.6251 91.2737 32.5213V31.7279C91.3197 29.9342 91.3427 28.6925 91.3427 28.0026C91.3427 26.4159 91.2967 24.6567 91.2047 22.725H99.4488Z" fill="#6725D3"/>
<path d="M107.152 32.9352C107.336 33.947 107.784 34.7749 108.497 35.4188C109.233 36.0397 110.268 36.3501 111.601 36.3501C112.567 36.3501 113.476 36.1661 114.326 35.7982C115.177 35.4073 115.856 34.8669 116.362 34.177C117.902 34.9359 119.949 35.7522 122.501 36.6261C121.789 38.2358 120.489 39.5236 118.604 40.4894C116.741 41.4322 114.303 41.9036 111.291 41.9036C107.382 41.9036 104.484 41.0068 102.598 39.2131C100.736 37.3964 99.8045 35.0164 99.8045 32.0729C99.8045 29.1984 100.736 26.8643 102.598 25.0706C104.461 23.2769 107.359 22.3801 111.291 22.3801C113.637 22.3801 115.672 22.771 117.396 23.5529C119.121 24.3347 120.443 25.427 121.363 26.8298C122.283 28.2095 122.743 29.7963 122.743 31.59C122.743 32.1878 122.72 32.6363 122.674 32.9352H107.152ZM111.774 27.5887C110.624 27.5887 109.681 27.8071 108.945 28.244C108.209 28.681 107.692 29.2789 107.393 30.0377H115.534C115.258 29.3019 114.809 28.7155 114.188 28.2785C113.568 27.8186 112.763 27.5887 111.774 27.5887Z" fill="#6725D3"/>
<path d="M27.1126 20C27.2965 16.9875 27.3885 13.8716 27.3885 10.6522C27.3885 9.61733 27.1241 8.81248 26.5951 8.23758C26.0892 7.63968 25.4109 7.34073 24.56 7.34073C23.7781 7.34073 23.0998 7.68567 22.5249 8.37555C21.973 9.06543 21.697 10.0658 21.697 11.3765V11.342C21.697 15.4123 21.7545 18.2983 21.8695 20H14.1083C14.2463 16.6196 14.3153 13.5037 14.3153 10.6522C14.3153 9.64033 14.0624 8.83547 13.5564 8.23758C13.0735 7.63968 12.4526 7.34073 11.6938 7.34073C10.8889 7.34073 10.2105 7.68567 9.65863 8.37555C9.12972 9.04244 8.81928 9.96227 8.72729 11.1351C8.6813 12.8828 8.6583 14.1245 8.6583 14.8604C8.6583 16.4241 8.7043 18.1373 8.79628 20H0.55223C0.736198 16.6886 0.828182 13.5611 0.828182 10.6177C0.828182 7.67418 0.736198 4.52373 0.55223 1.16632C2.06996 1.23531 3.23126 1.2698 4.03612 1.2698C4.88697 1.2698 6.04826 1.23531 7.52 1.16632L8.55482 6.27142C9.08373 4.40875 9.92308 3.04049 11.0729 2.16665C12.2227 1.2698 13.5449 0.821381 15.0397 0.821381C16.8334 0.821381 18.2936 1.31579 19.4204 2.30462C20.5702 3.29345 21.2831 4.58122 21.559 6.16794C22.0879 4.53523 22.9733 3.23596 24.2151 2.27013C25.4568 1.3043 26.8711 0.821381 28.4578 0.821381C30.5275 0.821381 32.1487 1.52276 33.3215 2.92551C34.4943 4.30527 35.0807 6.20244 35.0807 8.61701V14.343C35.0807 16.9415 35.1037 18.8272 35.1496 20H27.1126Z" fill="#ADADAD"/>
<path d="M47.2797 20.3449C43.3473 20.3449 40.4498 19.4481 38.5872 17.6544C36.7475 15.8377 35.8277 13.4577 35.8277 10.5142C35.8277 7.63968 36.7475 5.30559 38.5872 3.51191C40.4498 1.71822 43.3473 0.821381 47.2797 0.821381C49.9242 0.821381 52.1318 1.2583 53.9025 2.13215C55.6962 2.983 57.0184 4.1443 57.8693 5.61604C58.7201 7.06478 59.1456 8.6975 59.1456 10.5142C59.1456 13.4807 58.1567 15.8607 56.1791 17.6544C54.2244 19.4481 51.258 20.3449 47.2797 20.3449ZM47.4176 14.481C48.9124 14.481 50.0277 14.1245 50.7635 13.4117C51.4994 12.6988 51.8673 11.7445 51.8673 10.5487C51.8673 9.42187 51.4994 8.50203 50.7635 7.78916C50.0277 7.05329 48.9124 6.68535 47.4176 6.68535C45.9229 6.68535 44.8306 7.04179 44.1407 7.75466C43.4508 8.46754 43.1059 9.39887 43.1059 10.5487C43.1059 11.7445 43.4508 12.6988 44.1407 13.4117C44.8306 14.1245 45.9229 14.481 47.4176 14.481Z" fill="#ADADAD"/>
<path d="M72.9545 20C73.0924 16.6196 73.1614 13.5037 73.1614 10.6522C73.1614 9.64033 72.9085 8.83547 72.4025 8.23758C71.9196 7.63968 71.2987 7.34073 70.5399 7.34073C69.781 7.34073 69.1371 7.68567 68.6082 8.37555C68.0793 9.04244 67.7689 9.96227 67.6769 11.1351C67.6309 12.8828 67.6079 14.1245 67.6079 14.8604C67.6079 16.4241 67.6539 18.1373 67.7459 20H59.5018C59.6858 16.6886 59.7778 13.5611 59.7778 10.6177C59.7778 7.67418 59.6858 4.52373 59.5018 1.16632C61.0196 1.23531 62.1808 1.2698 62.9857 1.2698C63.8366 1.2698 64.9979 1.23531 66.4696 1.16632L67.4699 6.23693C67.9988 4.39725 68.8267 3.04049 69.9535 2.16665C71.0803 1.2698 72.3911 0.821381 73.8858 0.821381C75.2655 0.821381 76.4613 1.13183 77.4732 1.75272C78.485 2.35061 79.2438 3.16697 79.7498 4.20179C80.2787 5.2366 80.5431 6.3979 80.5431 7.68567V12.6528C80.5431 15.7113 80.6006 18.1603 80.7156 20H72.9545Z" fill="#ADADAD"/>
<path d="M92.5233 20.3449C88.591 20.3449 85.6935 19.4481 83.8308 17.6544C81.9911 15.8377 81.0713 13.4577 81.0713 10.5142C81.0713 7.63968 81.9911 5.30559 83.8308 3.51191C85.6935 1.71822 88.591 0.821381 92.5233 0.821381C95.1678 0.821381 97.3754 1.2583 99.1461 2.13215C100.94 2.983 102.262 4.1443 103.113 5.61604C103.964 7.06478 104.389 8.6975 104.389 10.5142C104.389 13.4807 103.4 15.8607 101.423 17.6544C99.4681 19.4481 96.5016 20.3449 92.5233 20.3449ZM92.6613 14.481C94.156 14.481 95.2713 14.1245 96.0072 13.4117C96.743 12.6988 97.111 11.7445 97.111 10.5487C97.111 9.42187 96.743 8.50203 96.0072 7.78916C95.2713 7.05329 94.156 6.68535 92.6613 6.68535C91.1665 6.68535 90.0742 7.04179 89.3843 7.75466C88.6945 8.46754 88.3495 9.39887 88.3495 10.5487C88.3495 11.7445 88.6945 12.6988 89.3843 13.4117C90.0742 14.1245 91.1665 14.481 92.6613 14.481Z" fill="#ADADAD"/>
</svg>
